<svg width="32" height="32" fill="none" xmlns="http://www.w3.org/2000/svg"><path d="M25.81 24.421a12.927 12.927 0 0 0 3.125-8.42c0-7.134-5.803-12.937-12.936-12.937S3.062 8.867 3.062 16 8.867 28.936 16 28.936c3.086 0 6.077-1.11 8.42-3.125a.51.51 0 0 1 .714.047c.25-.232.492-.473.724-.723a.51.51 0 0 1-.047-.714ZM15.488 4.596a.51.51 0 0 1 1.021 0v2.042a.51.51 0 1 1-1.021 0V4.596ZM6.637 16.51H4.594a.51.51 0 0 1 0-1.021h2.043a.51.51 0 1 1 0 1.02Zm9.872 10.893a.51.51 0 1 1-1.021 0v-2.042a.51.51 0 0 1 1.021 0v2.042ZM24.424 9.74l-6.581 6.582a1.875 1.875 0 0 1-2.757 1.311l-5.343 5.344a.51.51 0 0 1-.722 0 .51.51 0 0 1 0-.722l5.343-5.344a1.86 1.86 0 0 1-.21-.59L9.74 11.909a.51.51 0 0 1 0-.722l1.444-1.444c.2-.2.523-.2.722 0l4.415 4.414.065.012.696-.695a.51.51 0 0 1 0-.722l5.175-5.176a.511.511 0 0 1 .722 0l1.445 1.444c.2.2.2.523 0 .722Zm.936 6.77a.51.51 0 0 1 0-1.021h2.043a.51.51 0 1 1 0 1.02H25.36Z" fill="#fff"/><path d="m17.638 15.088 5.707-5.708-.722-.722-4.814 4.815c-.2.2-.523.2-.722 0l-.696.695a1.88 1.88 0 0 1 1.247.92Z" fill="#C7C7C7"/><path d="M16.002 1.021c-8.26 0-14.979 6.72-14.979 14.98 0 8.258 6.72 14.978 14.98 14.978 8.259 0 14.978-6.72 14.978-14.979 0-8.26-6.72-14.979-14.979-14.979Zm10.586 24.066a.51.51 0 0 1-.72.055l-.008-.007c-.232.25-.473.491-.723.723l.006.008a.51.51 0 0 1-.054.72 13.948 13.948 0 0 1-9.087 3.372C8.306 29.958 2.045 23.696 2.045 16c0-7.696 6.261-13.957 13.957-13.957C23.698 2.043 29.96 8.304 29.96 16a13.95 13.95 0 0 1-3.372 9.087Z" fill="#FC9B09"/><path d="M27.314 4.686A15.895 15.895 0 0 0 16 0 15.895 15.895 0 0 0 4.686 4.686 15.895 15.895 0 0 0 0 16c0 4.274 1.664 8.292 4.686 11.314A15.895 15.895 0 0 0 16 32c4.274 0 8.292-1.664 11.314-4.686A15.895 15.895 0 0 0 32 16c0-4.274-1.664-8.292-4.686-11.314ZM16 30.98c-8.26 0-14.979-6.72-14.979-14.979 0-8.261 6.72-14.98 14.979-14.98 8.26 0 14.979 6.72 14.979 14.979 0 8.26-6.72 14.979-14.979 14.979Z" fill="#37373F"/><path d="M27.915 16a.51.51 0 0 0-.51-.51h-2.043a.51.51 0 1 0 0 1.02h2.043a.51.51 0 0 0 .51-.51Z" fill="#082947"/><path d="M22.983 7.575a.511.511 0 0 0-.722 0l-5.176 5.175a.51.51 0 0 0 .722.723l4.815-4.815.722.722-5.708 5.708a1.879 1.879 0 0 0-1.247-.92l-.064-.012-4.415-4.415a.51.51 0 0 0-.722 0l-1.444 1.445a.51.51 0 0 0 0 .722l4.414 4.414c.037.211.109.41.21.59l-5.343 5.344a.51.51 0 1 0 .722.722l5.343-5.344a1.875 1.875 0 0 0 2.756-1.312l6.581-6.58c.2-.2.2-.523 0-.723l-1.444-1.444Zm-7.893 6.79c-.302.17-.553.42-.722.723l-3.541-3.541.722-.722 3.541 3.54ZM15.151 16a.852.852 0 0 1 1.702 0 .852.852 0 0 1-1.702 0Z" fill="#37373F"/><path d="M16.004 2.042C8.308 2.042 2.047 8.304 2.047 16c0 7.696 6.261 13.957 13.957 13.957a13.95 13.95 0 0 0 9.087-3.371.51.51 0 0 0 .055-.72l-.007-.008a.51.51 0 0 0-.713-.047 12.926 12.926 0 0 1-8.422 3.125C8.871 28.936 3.068 23.133 3.068 16S8.871 3.064 16.004 3.064 28.94 8.867 28.94 16c0 3.086-1.11 6.077-3.125 8.421a.51.51 0 0 0 .048.713l.007.007a.51.51 0 0 0 .72-.054A13.949 13.949 0 0 0 29.962 16c0-7.696-6.261-13.958-13.958-13.958Z" fill="#37373F"/></svg>